<?xml version="1.0" standalone="no"?>
<!DOCTYPE svg PUBLIC "-//W3C//DTD SVG 20010904//EN"
 "http://www.w3.org/TR/2001/REC-SVG-20010904/DTD/svg10.dtd">
<svg version="1.0" xmlns="http://www.w3.org/2000/svg"
 width="222.000000pt" height="174.000000pt" viewBox="0 0 222.000000 174.000000"
 preserveAspectRatio="xMidYMid meet">
<metadata>
Created by potrace 1.10, written by Peter Selinger 2001-2011
</metadata>
<g transform="translate(0.000000,174.000000) scale(0.100000,-0.100000)"
fill="#000000" stroke="none">
<path d="M1058 1590 c-269 -5 -277 -6 -297 -27 -17 -18 -21 -35 -21 -93 l0
-70 -59 0 c-58 0 -60 1 -63 28 -3 26 -5 27 -73 30 -70 3 -70 3 -82 -28 l-11
-30 -134 0 -135 0 -36 -37 -37 -36 0 -577 0 -576 29 -34 29 -35 136 -3 c132
-3 137 -4 152 -28 15 -22 23 -24 89 -24 69 0 74 2 77 22 l3 23 462 3 462 2 3
-22 c3 -22 7 -23 88 -23 79 0 85 1 88 22 3 20 9 21 142 25 121 3 141 5 160 23
50 45 50 50 50 626 1 589 3 567 -59 622 -30 26 -33 27 -158 27 l-128 0 -17 30
c-16 29 -20 30 -83 30 -65 0 -67 -1 -78 -30 -11 -30 -14 -31 -67 -28 l-55 3
-1 55 c-1 91 -3 99 -26 114 -34 22 -49 22 -350 16z m-140 -122 l3 -68 -61 0
-60 0 0 60 c0 53 3 62 23 70 12 5 38 8 57 7 l35 -2 3 -67z m447 49 c5 -8 10
-36 10 -63 l0 -49 -197 -3 -198 -2 0 63 c0 35 2 66 4 68 2 2 87 3 188 2 142
-2 185 -6 193 -16z m-800 -767 c0 -620 -1 -645 -19 -648 -10 -2 -22 0 -27 5
-10 10 -13 1268 -3 1284 3 6 16 9 27 7 l22 -3 0 -645z m1103 3 l-3 -648 -25 0
-25 0 -3 648 -2 647 30 0 30 0 -2 -647z m-1378 564 c0 -33 -71 -100 -101 -95
-21 3 -24 8 -22 42 4 54 26 76 80 76 38 0 43 -3 43 -23z m162 -366 c-1 -372
-2 -384 -22 -406 -11 -11 -20 -34 -20 -51 0 -16 -7 -38 -15 -48 -8 -11 -15
-37 -15 -57 0 -33 4 -39 38 -56 37 -18 37 -18 40 -86 4 -81 -6 -97 -59 -97
-40 0 -60 19 -52 49 4 17 -98 130 -120 132 -7 1 -21 2 -32 3 -20 1 -20 10 -25
404 -3 221 -3 407 -2 412 2 6 18 10 36 10 27 0 43 11 90 60 44 46 56 65 51 80
-10 32 3 41 57 38 l51 -3 -1 -384z m468 336 c0 -51 -1 -53 -62 -112 l-63 -61
1 -169 1 -170 151 -3 152 -3 -1 178 -1 178 -58 50 c-58 50 -58 50 -59 108 l-1
57 285 0 285 0 0 -120 0 -119 -30 -16 c-16 -8 -44 -15 -63 -15 -18 0 -38 -5
-44 -11 -6 -6 -26 -14 -45 -18 l-33 -7 4 -54 c2 -30 10 -64 17 -75 8 -11 14
-32 14 -47 0 -27 2 -28 48 -28 26 0 56 7 66 15 11 8 30 15 43 15 l23 0 -2
-350 -3 -351 -460 0 -460 -1 -3 61 c-2 49 0 61 12 61 8 0 18 -4 21 -10 3 -5
21 -10 39 -10 18 0 41 -7 52 -15 10 -8 24 -15 31 -15 15 0 49 75 57 125 3 22
10 41 16 43 17 6 11 33 -12 53 -13 10 -38 18 -56 19 -18 0 -43 5 -55 12 -12 7
-40 14 -62 17 l-40 6 -3 418 -2 417 150 0 150 0 0 -53z m926 12 c1 -31 10 -45
54 -87 39 -38 62 -52 88 -54 l34 -3 -1 -405 c-2 -304 -5 -406 -14 -412 -7 -4
-25 -8 -40 -8 -45 0 -116 -74 -125 -130 l-8 -45 -49 0 -50 0 -3 383 -2 382 34
0 c18 0 47 7 62 15 16 8 43 15 60 15 16 0 35 5 42 12 16 16 15 87 -3 118 -8
14 -14 35 -15 47 0 29 -37 55 -61 43 -10 -6 -29 -10 -43 -10 -15 0 -35 -5 -46
-12 -10 -7 -21 -10 -24 -7 -4 4 -9 144 -7 187 1 9 17 12 59 10 l57 -3 1 -36z
m154 11 c12 -16 22 -42 23 -57 2 -24 -2 -28 -29 -31 -25 -2 -37 4 -63 33 -17
20 -31 47 -31 60 0 22 4 25 39 25 33 0 43 -5 61 -30z m-1080 -185 c12 -31 34
-32 54 -3 l16 22 25 -24 c16 -15 25 -34 25 -54 l0 -31 -95 0 -95 -1 0 27 c0
23 42 89 56 89 3 0 9 -11 14 -25z m940 -35 c11 -11 20 -32 20 -48 0 -22 -7
-29 -37 -41 -21 -7 -56 -14 -78 -15 l-40 -1 3 45 c2 25 8 49 12 54 7 7 46 18
93 25 4 0 16 -8 27 -19z m-310 -114 c0 -47 -3 -54 -22 -59 -13 -3 -38 -11 -56
-18 -32 -13 -35 -12 -53 10 -41 50 -17 101 48 101 15 0 37 7 47 15 28 21 36
10 36 -49z m-658 0 c18 -3 47 -7 63 -9 20 -3 14 -5 -17 -6 -57 -1 -78 -9 -78
-28 0 -11 16 -14 86 -12 53 1 89 -2 97 -10 14 -14 18 -13 -91 -16 -95 -2 -109
-6 -97 -25 4 -7 39 -10 96 -9 49 1 92 -1 96 -4 3 -4 0 -13 -7 -22 -9 -11 -33
-15 -91 -15 -104 0 -109 6 -108 118 0 61 3 80 9 65 6 -14 20 -24 42 -27z m148
-12 c0 -8 -9 -14 -20 -14 -22 0 -28 26 -7 33 16 6 27 -1 27 -19z m-325 -539
c17 -8 38 -16 48 -19 15 -5 17 -12 11 -43 -3 -21 -9 -41 -13 -45 -10 -12 -122
8 -132 23 -9 15 -12 92 -4 101 8 8 55 -2 90 -17z m-245 -15 c0 -10 -5 -22 -10
-25 -13 -8 -24 20 -16 41 8 20 26 9 26 -16z m-220 -168 c67 -64 48 -110 -34
-80 -33 12 -42 21 -47 47 -16 78 18 92 81 33z m1770 19 c23 -43 -45 -119 -97
-109 -28 5 -28 50 0 79 46 50 80 61 97 30z"/>
</g>
</svg>
