<?xml version="1.0" standalone="no"?>
<!DOCTYPE svg PUBLIC "-//W3C//DTD SVG 20010904//EN"
 "http://www.w3.org/TR/2001/REC-SVG-20010904/DTD/svg10.dtd">
<svg version="1.0" xmlns="http://www.w3.org/2000/svg"
 width="207.000000pt" height="174.000000pt" viewBox="0 0 207.000000 174.000000"
 preserveAspectRatio="xMidYMid meet">
<metadata>
Created by potrace 1.10, written by Peter Selinger 2001-2011
</metadata>
<g transform="translate(0.000000,174.000000) scale(0.100000,-0.100000)"
fill="#000000" stroke="none">
<path d="M665 1620 c-13 -14 -20 -41 -23 -83 -3 -41 -9 -66 -20 -74 -12 -10
-81 -13 -264 -13 -275 0 -286 -2 -332 -63 l-26 -34 1 -554 c1 -626 -3 -594 80
-636 l44 -23 862 0 c857 0 863 0 903 21 22 12 49 34 60 49 19 27 20 45 20 585
0 538 -1 559 -20 590 -35 57 -50 60 -340 65 l-265 5 -6 68 c-4 52 -11 73 -29
92 l-23 25 -302 0 c-291 0 -303 -1 -320 -20z m356 -40 l260 0 -3 -62 -3 -63
-273 -3 c-177 -1 -280 1 -292 8 -16 8 -20 21 -20 61 0 42 3 51 23 59 12 5 28
7 35 4 8 -2 130 -4 273 -4z m863 -202 l26 -23 0 -370 c1 -203 1 -376 0 -382 0
-10 -81 -13 -370 -13 -371 0 -376 0 -371 32 0 4 -4 19 -9 33 l-10 25 -172 -2
-173 -3 -3 -43 -3 -42 -375 0 -374 0 0 376 0 375 32 30 32 29 873 0 872 0 25
-22z m-766 -825 c5 -102 2 -104 -136 -101 l-117 3 -3 83 -3 83 128 -3 128 -3
3 -62z m-320 -73 c2 -37 8 -59 19 -67 12 -9 64 -13 175 -13 179 0 178 0 178
83 0 32 5 47 16 51 31 12 712 7 720 -5 4 -7 6 -75 5 -152 -2 -130 -4 -141 -24
-158 -21 -17 -65 -18 -901 -19 l-880 0 -28 27 c-28 27 -28 27 -28 163 0 75 3
140 7 143 4 4 171 6 372 5 l366 -3 3 -55z"/>
</g>
</svg>
