<?xml version="1.0" standalone="no"?>
<!DOCTYPE svg PUBLIC "-//W3C//DTD SVG 20010904//EN"
 "http://www.w3.org/TR/2001/REC-SVG-20010904/DTD/svg10.dtd">
<svg version="1.0" xmlns="http://www.w3.org/2000/svg"
 width="52.000000pt" height="51.000000pt" viewBox="0 0 52.000000 51.000000"
 preserveAspectRatio="xMidYMid meet">
<metadata>
Created by potrace 1.10, written by Peter Selinger 2001-2011
</metadata>
<g transform="translate(0.000000,51.000000) scale(0.100000,-0.100000)"
fill="#269bfb" stroke="none">
<path d="M172 449 c-142 -70 -164 -258 -42 -361 166 -143 412 21 349 233 -37
122 -189 186 -307 128z m171 -23 c41 -17 91 -74 107 -121 37 -114 -56 -237
-180 -237 -124 0 -217 123 -180 237 15 46 65 104 105 121 39 17 107 17 148 0z"/>
<path d="M225 413 c-32 -8 -76 -44 -69 -55 4 -7 2 -8 -4 -4 -7 4 -18 -7 -28
-25 -22 -43 -15 -135 11 -171 84 -113 259 -78 294 58 30 117 -83 227 -204 197z
m55 -32 c0 -5 12 -11 27 -13 39 -4 42 -28 4 -28 -29 0 -31 -2 -31 -39 0 -37 2
-40 33 -43 30 -3 32 -6 35 -46 4 -49 -10 -72 -43 -72 -13 0 -26 -6 -29 -12 -5
-10 -7 -10 -12 0 -3 6 -21 12 -40 12 -19 0 -34 5 -34 10 0 6 16 10 35 10 34 0
35 1 35 40 0 35 -3 40 -24 40 -34 0 -48 22 -44 72 3 39 6 44 36 53 17 5 32 13
32 17 0 4 5 8 10 8 6 0 10 -4 10 -9z"/>
<path d="M210 305 c0 -19 3 -35 8 -36 4 0 15 -2 25 -4 14 -3 17 4 17 36 0 35
-3 39 -25 39 -22 0 -25 -4 -25 -35z"/>
<path d="M280 200 c0 -37 2 -41 23 -38 18 2 22 9 22 38 0 29 -4 36 -22 38 -21
3 -23 -1 -23 -38z m27 -17 c-4 -3 -10 -3 -14 0 -3 4 0 7 7 7 7 0 10 -3 7 -7z"/>
</g>
</svg>
