<?xml version="1.0" standalone="no"?>
<!DOCTYPE svg PUBLIC "-//W3C//DTD SVG 20010904//EN"
 "http://www.w3.org/TR/2001/REC-SVG-20010904/DTD/svg10.dtd">
<svg version="1.0" xmlns="http://www.w3.org/2000/svg"
 width="65.000000pt" height="58.000000pt" viewBox="0 0 65.000000 58.000000"
 preserveAspectRatio="xMidYMid meet">
<metadata>
Created by potrace 1.10, written by Peter Selinger 2001-2011
</metadata>
<g transform="translate(0.000000,58.000000) scale(0.100000,-0.100000)"
fill="#000000" stroke="none">
<path d="M12 288 l3 -143 64 -1 c57 -1 66 -4 83 -27 22 -30 144 -101 158 -92
5 3 23 -1 39 -9 28 -15 31 -14 75 20 43 33 81 85 70 96 -2 3 2 11 11 18 11 9
15 9 15 1 0 -8 18 -11 55 -9 l56 3 2 143 2 142 -57 0 c-31 0 -60 -4 -63 -10
-3 -5 -15 -10 -25 -10 -10 0 -23 -8 -29 -17 -15 -27 -94 -40 -186 -29 -48 5
-83 14 -88 23 -14 23 -77 43 -133 43 l-55 0 3 -142z m98 -3 l0 -125 -40 0 -40
0 0 125 0 125 40 0 40 0 0 -125z m520 0 l0 -125 -40 0 -40 0 0 125 0 125 40 0
40 0 0 -125z m-452 100 c2 -2 -8 -38 -22 -82 l-25 -78 -1 88 c0 87 0 88 23 81
12 -3 23 -8 25 -9z m351 -67 l-1 -83 -18 62 c-10 34 -21 66 -24 72 -6 9 19 30
37 31 4 0 7 -37 6 -82z m-239 26 l35 -6 -49 -18 c-60 -23 -60 -24 -47 -48 15
-29 39 -34 91 -18 l45 13 64 -69 c35 -38 61 -71 58 -75 -3 -3 -27 12 -52 32
-61 50 -68 39 -9 -15 63 -58 44 -74 -24 -20 -54 42 -62 46 -62 31 0 -5 23 -26
51 -46 33 -25 47 -41 40 -48 -10 -10 -40 8 -117 70 -23 18 -56 38 -74 45 -30
10 -35 9 -50 -10 -18 -21 -18 -21 -36 -1 -17 19 -17 23 10 107 32 98 21 92
126 76z m210 -76 c27 -84 26 -108 -3 -108 -5 0 -36 29 -69 64 l-59 65 -50 -15
c-40 -12 -54 -13 -65 -3 -13 11 -10 15 18 27 43 20 181 61 191 59 5 -2 21 -42
37 -89z m-288 -138 c-9 -16 -21 -25 -25 -21 -11 11 13 51 30 51 8 0 7 -9 -5
-30z m51 14 c11 -11 -25 -63 -40 -57 -10 4 -9 11 4 34 18 30 25 34 36 23z m30
-60 c-27 -42 -51 -26 -26 17 13 21 20 26 30 18 10 -9 9 -16 -4 -35z m35 -19
c-11 -25 -20 -30 -31 -19 -9 9 23 55 34 49 4 -3 3 -17 -3 -30z m59 -18 c21
-16 4 -27 -22 -15 -25 11 -30 20 -19 31 7 6 18 2 41 -16z"/>
</g>
</svg>
