<?xml version="1.0" standalone="no"?>
<!DOCTYPE svg PUBLIC "-//W3C//DTD SVG 20010904//EN"
 "http://www.w3.org/TR/2001/REC-SVG-20010904/DTD/svg10.dtd">
<svg version="1.0" xmlns="http://www.w3.org/2000/svg"
 width="204.000000pt" height="174.000000pt" viewBox="0 0 204.000000 174.000000"
 preserveAspectRatio="xMidYMid meet">
<metadata>
Created by potrace 1.10, written by Peter Selinger 2001-2011
</metadata>
<g transform="translate(0.000000,174.000000) scale(0.100000,-0.100000)"
fill="#000000" stroke="none">
<path d="M949 1676 c-108 -74 -136 -226 -56 -317 43 -49 44 -66 2 -83 -73 -31
-139 -122 -164 -229 -8 -36 -8 -52 1 -67 12 -19 24 -20 329 -20 353 0 345 -2
336 67 -7 53 -28 104 -61 148 -36 47 -97 104 -112 105 -6 0 -17 6 -23 14 -9
11 -6 20 13 43 13 15 34 48 46 71 44 85 9 196 -82 262 -37 27 -48 30 -117 30
-64 0 -82 -4 -112 -24z m169 -30 c52 -18 99 -70 105 -116 13 -102 -26 -170
-114 -197 -52 -16 -120 -3 -157 31 -33 29 -62 89 -62 126 0 17 9 47 19 68 44
85 124 119 209 88z m34 -387 c103 -38 188 -136 188 -217 l0 -32 -286 0 -286 0
5 23 c6 28 30 90 37 97 3 3 13 17 23 33 34 52 153 114 226 116 19 1 60 -9 93
-20z"/>
<path d="M1047 914 c-4 -4 -7 -38 -7 -76 0 -66 -1 -68 -25 -68 -16 0 -41 -17
-75 -51 l-52 -51 4 -67 c2 -36 8 -74 12 -83 6 -13 -5 -31 -43 -71 -28 -30 -51
-61 -51 -70 0 -30 35 -18 80 28 50 50 56 52 122 28 41 -14 52 -15 90 -3 24 7
50 19 59 27 13 11 24 4 74 -47 32 -32 62 -57 67 -54 20 12 5 47 -37 87 -48 46
-54 67 -33 123 9 26 9 42 -2 76 -20 62 -39 86 -92 113 l-47 25 -3 67 c-2 52
-7 68 -18 71 -9 1 -19 0 -23 -4z m60 -199 c45 -18 83 -72 83 -117 0 -65 -65
-128 -132 -128 -30 0 -46 8 -79 40 -42 39 -42 40 -36 99 5 64 23 91 73 109 40
14 48 14 91 -3z"/>
<path d="M1605 759 c-57 -12 -86 -29 -129 -73 -34 -36 -44 -54 -50 -92 -11
-85 2 -138 45 -185 22 -23 39 -45 39 -48 0 -4 -16 -15 -36 -26 -46 -25 -118
-100 -144 -149 -11 -23 -21 -64 -22 -100 l-3 -61 330 0 330 0 3 39 c7 79 -67
202 -153 257 -30 19 -55 38 -55 42 0 4 12 19 26 32 63 59 83 164 44 239 -22
45 -87 106 -112 106 -9 0 -19 4 -22 9 -8 13 -56 18 -91 10z m138 -92 c76 -75
76 -169 0 -243 -43 -42 -48 -44 -104 -44 -59 0 -92 13 -129 50 -22 23 -50 87
-50 115 0 28 28 92 50 115 38 38 66 49 127 49 59 1 63 -1 106 -42z m7 -365
c66 -34 89 -54 125 -108 28 -43 36 -62 33 -92 l-3 -37 -275 0 -275 0 1 32 c3
65 94 193 138 193 7 0 19 7 26 15 19 23 184 21 230 -3z"/>
<path d="M388 732 c-26 -15 -56 -39 -67 -53 -22 -28 -51 -103 -51 -132 0 -41
35 -121 67 -152 l34 -33 -56 -36 c-67 -45 -134 -131 -147 -189 -22 -99 -22
-106 3 -112 13 -3 166 -4 339 -3 l315 3 3 33 c2 18 -4 46 -12 64 -9 17 -16 37
-16 45 0 14 -29 60 -65 101 -11 13 -44 40 -72 59 l-53 35 30 29 c36 37 70 111
70 154 0 70 -84 195 -131 195 -10 0 -21 5 -24 10 -3 6 -32 10 -63 9 -43 0 -69
-7 -104 -27z m184 -42 c59 -34 78 -70 78 -145 0 -52 -5 -72 -22 -96 -54 -73
-167 -94 -233 -43 -99 75 -98 210 2 279 48 32 126 35 175 5z m40 -387 c44 -24
119 -99 141 -144 10 -20 17 -49 15 -65 l-3 -29 -280 0 c-322 0 -306 -6 -256
95 32 64 74 108 132 139 48 26 204 28 251 4z"/>
</g>
</svg>
